:SAMPLES-PER-SECOND 30
:FULLY-SPECIFIED
:DEGREES
376
root  68.3423 35.3184 5.61556 42.4749 -4.01751 -1.40109
RightUpLeg  -91.5765 -29.0476 40.1491
RightLeg  40.4805 17.3856 15.0573
RightFoot  0.87932 -0.371158 3.51966
RightToes  0.00048216 0.542163 -0.142577
Spine  70.5115 -1.44545 2.11293
Spine1  14.3552 1.52748 -3.55014
HEad  -31.1839 -4.24491 3.87596
LeftShoulder1  4.82419 -21.235 -12.3516
LeftArm  -88.3789 -48.8169 24.6663
LeftForeArm  -12.6946 -19.7292 -2.65496
LeftHand  -0.25398 0.0180481 5.50724
RightShoulder  0.274881 6.47917 -6.45412
RightArm  -79.8506 61.1043 -14.3409
RightForeArm  -22.8205 33.8239 8.71347
RightHand  -0.359408 7.55458 -3.71397
LeftUpLeg  -90.4043 28.3683 -41.091
LeftLeg  43.0786 -0.634109 -0.22282
LeftFoot  -7.41841 -0.242073 8.36071
LeftToes  1.06243e-005 4.65856e-005 -8.18505e-006
377
root  68.6206 35.5231 5.40233 41.6864 -5.24434 -1.58654
RightUpLeg  -90.0078 -29.3213 40.2007
RightLeg  38.0042 18.8989 14.9787
RightFoot  2.19076 -0.506004 4.39209
RightToes  0.00048216 0.542163 -0.142577
Spine  70.3128 -1.64943 2.37973
Spine1  14.0326 1.66155 -3.89602
HEad  -31.3212 -4.18451 4.5163
LeftShoulder1  5.20912 -21.5617 -13.7545
LeftArm  -87.3167 -48.3216 22.0571
LeftForeArm  -9.50718 -22.4451 -4.89771
LeftHand  -0.25398 0.0180481 5.50724
RightShoulder  0.287941 6.55921 -6.3289
RightArm  -81.1244 61.0548 -14.5041
RightForeArm  -20.0607 33.4514 8.48071
RightHand  -0.146003 5.93312 -1.93524
LeftUpLeg  -89.8242 29.4846 -42.466
LeftLeg  41.6997 -0.971845 -0.52278
LeftFoot  -7.19145 -0.277494 8.83189
LeftToes  1.06243e-005 4.65856e-005 -8.18505e-006
378
root  68.8725 35.7784 5.16423 40.7264 -6.65862 -1.73238
RightUpLeg  -87.5939 -29.28 39.4284
RightLeg  34.7777 20.033 14.1491
RightFoot  3.54359 -0.623434 4.95508
RightToes  0.00048216 0.542163 -0.142577
Spine  69.8189 -1.89323 2.76815
Spine1  14.0587 1.90383 -4.46457
HEad  -31.5247 -4.28367 5.48254
LeftShoulder1  5.4617 -21.8693 -14.5664
LeftArm  -83.6789 -48.2054 18.8116
LeftForeArm  -7.92184 -25.2293 -5.84578
LeftHand  -0.25398 0.0180481 5.50724
RightShoulder  0.29938 6.64429 -6.21899
RightArm  -81.1625 60.7055 -13.7032
RightForeArm  -19.2444 33.866 8.56189
RightHand  -0.0887252 4.57081 -1.39905
LeftUpLeg  -89.1515 30.9359 -44.2333
LeftLeg  39.7944 -1.45289 -0.904473
LeftFoot  -6.60694 -0.356242 9.55549
LeftToes  1.06243e-005 4.65856e-005 -8.18505e-006
379
root  69.1019 36.0758 4.91093 39.5017 -8.21649 -1.68736
RightUpLeg  -84.4623 -29.1413 37.7532
RightLeg  31.0183 20.816 12.8002
RightFoot  4.96089 -0.789459 5.7405
RightToes  0.00048216 0.542163 -0.142577
Spine  69.1725 -2.08789 3.25536
Spine1  14.0248 2.28726 -4.88798
HEad  -31.5234 -5.05317 6.33653
LeftShoulder1  5.6121 -22.6225 -14.5052
LeftArm  -79.2714 -47.8137 14.0285
LeftForeArm  -7.67679 -27.5569 -6.33504
LeftHand  -0.25398 0.0180481 5.50724
RightShoulder  0.381096 6.596 -5.26822
RightArm  -79.2419 60.1821 -12.6256
RightForeArm  -20.6364 35.2107 9.02148
RightHand  -0.0430272 3.09704 -0.866708
LeftUpLeg  -88.2436 32.6207 -46.1804
LeftLeg  37.5636 -1.88406 -1.17273
LeftFoot  -5.96967 -0.446681 10.2623
LeftToes  1.06243e-005 4.65856e-005 -8.18505e-006
380
root  69.3205 36.3981 4.66373 37.8965 -9.91119 -1.42026
RightUpLeg  -80.8149 -29.1335 35.5704
RightLeg  27.0135 21.5021 11.2781
RightFoot  6.40161 -1.03318 6.8926
RightToes  0.00048216 0.542163 -0.142577
Spine  68.4617 -2.246 2.9905
Spine1  14.0298 1.77161 -4.30784
HEad  -31.4038 -5.0095 6.0563
LeftShoulder1  5.94232 -22.0034 -16.4849
LeftArm  -73.6949 -46.9722 10.1624
LeftForeArm  -9.71267 -29.6829 -6.96238
LeftHand  -0.25398 0.0180481 5.50724
RightShoulder  0.3876 7.89524 -5.72699
RightArm  -76.308 59.5532 -10.1567
RightForeArm  -22.307 36.8615 9.60503
RightHand  -0.0101061 1.38687 -0.32888
LeftUpLeg  -87.1685 34.7209 -48.4628
LeftLeg  35.1716 -2.50041 -1.51887
LeftFoot  -5.39937 -0.531379 10.8323
LeftToes  1.06243e-005 4.65856e-005 -8.18505e-006
381
root  69.5288 36.7321 4.44778 35.8607 -11.8242 -0.912324
RightUpLeg  -76.6652 -29.3383 33.0445
RightLeg  22.8092 22.1974 9.6948
RightFoot  7.57767 -1.31028 8.16512
RightToes  0.00048216 0.542163 -0.142577
Spine  67.5942 -2.43716 3.02197
Spine1  14.2998 1.57143 -4.09571
HEad  -31.4214 -5.84563 6.20901
LeftShoulder1  6.13156 -21.8948 -17.3872
LeftArm  -66.9559 -45.7567 4.31421
LeftForeArm  -11.205 -32.1801 -7.69083
LeftHand  -0.25398 0.0180481 5.50724
RightShoulder  0.557561 8.5544 -4.30146
RightArm  -71.8698 59.0136 -8.12529
RightForeArm  -24.5007 38.7214 10.3118
RightHand  -0.0220207 -0.266567 -0.452491
LeftUpLeg  -86.3429 37.5801 -51.7502
LeftLeg  32.6338 -3.7963 -2.2479
LeftFoot  -4.72353 -0.62108 11.198
LeftToes  1.06243e-005 4.65856e-005 -8.18505e-006
382
root  69.7169 37.0875 4.28073 33.4595 -14.0302 -0.129913
RightUpLeg  -70.4557 -28.7087 26.9607
RightLeg  17.8759 19.9691 8.46171
RightFoot  8.29175 -1.63056 9.73313
RightToes  0.00048216 0.542163 -0.142577
Spine  66.8474 -2.15982 2.98513
Spine1  13.9988 1.56119 -3.20417
HEad  -31.3667 -7.28436 6.44725
LeftShoulder1  6.83929 -22.3104 -19.9306
LeftArm  -58.9785 -44.3432 -1.76792
LeftForeArm  -11.6575 -35.0581 -8.52253
LeftHand  -0.25398 0.0180481 5.50724
RightShoulder  0.776858 8.63485 -2.28149
RightArm  -64.5907 58.0841 -4.08865
RightForeArm  -26.7034 41.3777 11.349
RightHand  -0.0591758 -1.53724 -1.43926
LeftUpLeg  -86.3028 41.315 -56.6252
LeftLeg  29.8744 -6.07011 -3.39861
LeftFoot  -3.88837 -0.712098 11.2566
LeftToes  1.06243e-005 4.65856e-005 -8.18505e-006
383
root  69.8774 37.459 4.17034 30.9071 -16.4676 0.864641
RightUpLeg  -60.2705 -24.2317 12.1933
RightLeg  11.6842 9.30505 8.65667
RightFoot  8.43018 -2.00062 11.7826
RightToes  0.00048216 0.542163 -0.142577
Spine  65.7469 -2.40153 2.58321
Spine1  14.049 1.11449 -3.48732
HEad  -32.01 -7.78867 7.75095
LeftShoulder1  7.01773 -21.5455 -21.5563
LeftArm  -51.7003 -42.1964 -8.23371
LeftForeArm  -11.2514 -38.3328 -9.50545
LeftHand  -0.25398 0.0180481 5.50724
RightShoulder  1.04454 9.15885 -0.180536
RightArm  -56.8319 56.6526 1.76153
RightForeArm  -27.6304 44.9954 12.8226
RightHand  -0.091418 -2.25618 -2.78938
LeftUpLeg  -87.2797 45.4586 -62.778
LeftLeg  26.9331 -9.01765 -4.58077
LeftFoot  -3.01496 -0.784263 10.9891
LeftToes  1.06243e-005 4.65856e-005 -8.18505e-006
384
root  70.0111 37.8337 4.10161 28.356 -18.9724 1.91801
RightUpLeg  -52.0944 -17.8537 0.00207783
RightLeg  5.95405 -0.995208 9.45775
RightFoot  7.82551 -2.21095 13.3682
RightToes  0.00048216 0.542163 -0.142577
Spine  64.2835 -2.54077 2.06575
Spine1  13.9341 0.509062 -3.51455
HEad  -33.079 -8.45496 9.57865
LeftShoulder1  7.17411 -20.8615 -23.0743
LeftArm  -45.3554 -38.4878 -14.4791
LeftForeArm  -10.0526 -42.1421 -10.7463
LeftHand  -0.25398 0.0180481 5.50724
RightShoulder  1.4385 9.8477 2.70127
RightArm  -48.5568 54.2718 7.50946
RightForeArm  -26.9066 49.2697 14.7727
RightHand  -0.104307 -2.67325 -3.69872
LeftUpLeg  -88.3689 49.3377 -68.5553
LeftLeg  23.6672 -11.5398 -5.09324
LeftFoot  -1.99097 -0.843523 10.4337
LeftToes  1.06243e-005 4.65856e-005 -8.18505e-006
385
root  70.1032 38.1963 4.06045 25.7921 -21.5269 2.91285
RightUpLeg  -47.0207 -13.3716 -5.60134
RightLeg  1.88562 -7.42496 9.4182
RightFoot  6.28387 -1.96436 12.8826
RightToes  0.00048216 0.542163 -0.142577
Spine  62.3906 -2.29539 1.42177
Spine1  13.929 -0.17183 -2.76078
HEad  -34.3986 -9.44971 11.517
LeftShoulder1  7.28357 -20.3429 -24.2353
LeftArm  -40.2083 -33.2325 -20.2291
LeftForeArm  -7.75653 -46.7756 -12.4665
LeftHand  -0.25398 0.0180481 5.50724
RightShoulder  1.86976 10.2565 5.87829
RightArm  -40.8076 51.1687 12.7568
RightForeArm  -24.2041 53.7831 17.1856
RightHand  -0.0828013 -3.48748 -3.59024
LeftUpLeg  -82.7611 52.0441 -65.4229
LeftLeg  19.7083 -8.50024 -4.98443
LeftFoot  -0.76224 -0.881095 9.54717
LeftToes  1.06243e-005 4.65856e-005 -8.18505e-006
386
root  70.1248 38.5303 4.05988 23.1871 -24.3362 3.7893
RightUpLeg  -43.6537 -11.9925 -6.21969
RightLeg  -0.156966 -12.637 8.55262
RightFoot  3.98389 -1.29646 9.78666
RightToes  0.00048216 0.542163 -0.142577
Spine  60.1838 -1.92982 0.473447
Spine1  14.1802 -0.880876 -2.14679
HEad  -35.8351 -10.1968 13.4843
LeftShoulder1  7.13698 -19.4712 -24.7682
LeftArm  -36.4235 -26.9924 -24.8799
LeftForeArm  -4.38569 -52.0879 -14.833
LeftHand  -0.25398 0.0180481 5.50724
RightShoulder  2.31686 10.6011 9.06448
RightArm  -34.6607 47.4345 17.5042
RightForeArm  -19.7389 58.4213 20.3344
RightHand  -0.043279 -5.0328 -2.53813
LeftUpLeg  -60.2272 49.381 -40.481
LeftLeg  14.6903 8.90593 -6.02172
LeftFoot  0.36116 -0.869535 8.44378
LeftToes  1.06243e-005 4.65856e-005 -8.18505e-006
387
root  70.0621 38.8235 4.12175 20.6131 -27.5193 4.56108
RightUpLeg  -40.5318 -11.4892 -6.14609
RightLeg  -1.3458 -22.4737 8.52673
RightFoot  1.42414 -0.564035 5.10409
RightToes  0.00048216 0.542163 -0.142577
Spine  58.82 -0.661161 -0.503064
Spine1  12.0488 -0.853623 -0.460597
HEad  -36.3481 -12.4862 14.572
LeftShoulder1  8.26462 -20.1533 -28.8052
LeftArm  -32.2672 -19.547 -25.8411
LeftForeArm  -0.851308 -57.1209 -17.761
LeftHand  -0.25398 0.0180481 5.50724
RightShoulder  2.9623 10.5935 14.1432
RightArm  -28.356 41.4476 19.6491
RightForeArm  -14.268 63.5867 25.1367
RightHand  -0.0350144 -6.82695 -1.08983
LeftUpLeg  -40.1327 38.1809 -16.8899
LeftLeg  9.16769 30.5109 -8.93102
LeftFoot  1.28604 -0.846091 7.56245
LeftToes  1.06243e-005 4.65856e-005 -8.18505e-006
388
root  69.9142 39.0625 4.2454 17.9839 -30.8857 5.50477
RightUpLeg  -37.5468 -11.9923 -6.069
RightLeg  -2.03672 -36.1258 9.63724
RightFoot  -1.16995 -0.0458859 0.43192
RightToes  0.00048216 0.542163 -0.142577
Spine  56.7531 0.0346552 -1.70297
Spine1  11.3413 -1.06281 0.0863406
HEad  -37.7371 -13.9864 15.9183
LeftShoulder1  8.62607 -19.7509 -30.9887
LeftArm  -29.477 -12.5901 -26.5082
LeftForeArm  3.283 -62.0097 -21.5952
LeftHand  -0.25398 0.0180481 5.50724
RightShoulder  3.47485 10.5504 18.1933
RightArm  -24.4214 35.6942 21.6393
RightForeArm  -6.83535 68.1248 31.3487
RightHand  -0.069154 -8.14761 0.413427
LeftUpLeg  -29.8075 25.486 -4.79209
LeftLeg  2.29895 48.3664 -13.8778
LeftFoot  2.31296 -0.812892 6.66896
LeftToes  1.06243e-005 4.65856e-005 -8.18505e-006
389
root  69.6801 39.2523 4.41434 15.0571 -34.2466 6.86104
RightUpLeg  -34.7114 -13.4771 -6.2501
RightLeg  -2.11125 -49.7302 11.125
RightFoot  -3.61942 0.15484 -2.60412
RightToes  0.00048216 0.542163 -0.142577
Spine  54.681 0.700296 -2.99695
Spine1  10.3884 -1.32644 0.777263
HEad  -38.825 -15.7855 16.9412
LeftShoulder1  8.97143 -19.3299 -33.1965
LeftArm  -27.145 -5.76358 -26.2859
LeftForeArm  8.5822 -66.5621 -26.655
LeftHand  -0.25398 0.0180481 5.50724
RightShoulder  3.86454 10.3179 21.667
RightArm  -21.2515 29.5058 23.1302
RightForeArm  2.03365 71.8578 39.2559
RightHand  -0.119399 -9.14104 1.58276
LeftUpLeg  -23.7127 16.2209 0.185879
LeftLeg  -7.12281 60.519 -21.3055
LeftFoot  3.54965 -0.74431 5.52619
LeftToes  1.06243e-005 4.65856e-005 -8.18505e-006
390
root  69.3482 39.4194 4.63258 12.0718 -37.6796 8.2596
RightUpLeg  -31.9902 -15.2085 -6.5161
RightLeg  -1.21924 -59.1019 12.0237
RightFoot  -5.63538 0.13085 -3.33619
RightToes  0.00048216 0.542163 -0.142577
Spine  52.4081 1.2259 -4.155
Spine1  9.34434 -1.51566 1.357
HEad  -39.412 -17.4969 17.6532
LeftShoulder1  9.12283 -18.6891 -35.0046
LeftArm  -25.4929 0.54228 -25.8104
LeftForeArm  16.131 -70.709 -33.5207
LeftHand  -0.25398 0.0180481 5.50724
RightShoulder  4.08012 9.99556 24.0552
RightArm  -18.672 23.2159 24.8502
RightForeArm  11.6515 74.5958 48.5882
RightHand  -0.157646 -10.2041 1.95381
LeftUpLeg  -19.128 11.3028 1.57533
LeftLeg  -17.5242 67.6985 -29.6228
LeftFoot  4.51229 -0.645645 4.43454
LeftToes  1.06243e-005 4.65856e-005 -8.18505e-006
